<svg width="130" height="62" viewBox="0 0 130 62" fill="none" xmlns="http://www.w3.org/2000/svg">
<path fill-rule="evenodd" clip-rule="evenodd" d="M23.0614 22.5802C23.0614 22.5802 24.7434 18.3702 27.2664 12.0542C27.5674 11.2802 27.9404 10.4092 28.2194 9.6252C28.2884 9.3472 28.2044 8.9562 27.9784 8.7222C27.8674 8.6012 27.7284 8.5122 27.5774 8.4692C27.4994 8.4482 27.4254 8.4392 27.3374 8.4372L26.9734 8.4392C25.0254 8.4462 22.9704 8.4542 20.8454 8.4622C16.5954 8.4792 12.0614 8.4972 7.5274 8.5142C6.3944 8.5182 5.2604 8.5222 4.1314 8.5272L3.2864 8.5302C3.0164 8.5312 2.6594 8.5222 2.6124 8.5722C2.3004 8.6662 2.0634 9.0202 2.0584 9.3752C2.0374 9.6482 2.3334 10.2822 2.4874 10.7792C2.6714 11.3002 2.8534 11.8192 3.0354 12.3352C3.3984 13.3662 3.7574 14.3852 4.1104 15.3882C4.8164 17.3922 5.4994 19.3302 6.1454 21.1672C6.3254 21.7072 6.3954 21.8922 6.6474 22.0382C6.7684 22.1052 6.8674 22.1322 7.0254 22.1302C7.2584 22.1292 7.4894 22.1282 7.7184 22.1272C8.6354 22.1242 9.5204 22.1212 10.3704 22.1172C17.1714 22.0912 21.7054 22.0742 21.7054 22.0742V23.3572C21.7054 23.3572 17.1714 23.3402 10.3704 23.3132C9.5204 23.3102 8.6354 23.3072 7.7184 23.3032C7.4894 23.3022 7.2584 23.3012 7.0254 23.3002C6.7184 23.3072 6.3434 23.2202 6.0574 23.0422C5.7624 22.8672 5.5174 22.6132 5.3544 22.3162C5.1734 21.9652 5.1504 21.7882 5.0564 21.5462C4.4234 19.7042 3.7564 17.7612 3.0654 15.7512C2.7204 14.7462 2.3694 13.7242 2.0144 12.6902C1.8364 12.1732 1.6574 11.6522 1.4784 11.1302L1.2074 10.3432C1.1304 10.1232 0.979399 9.7262 1.0024 9.3442C1.0244 8.5882 1.5084 7.8322 2.2854 7.5822C2.7754 7.4392 2.9974 7.5112 3.2864 7.4942L4.1314 7.4972C5.2604 7.5012 6.3944 7.5062 7.5274 7.5102C12.0614 7.5282 16.5954 7.5452 20.8454 7.5622C22.9704 7.5702 25.0254 7.5782 26.9734 7.5852L27.3374 7.5872C27.4924 7.5892 27.6574 7.6102 27.8114 7.6542C28.1224 7.7452 28.3964 7.9272 28.6024 8.1572C29.0154 8.6252 29.1714 9.2462 29.0174 9.8572C28.6774 10.7962 28.3374 11.5512 28.0184 12.3582C25.4464 18.6542 23.7324 22.8512 23.7324 22.8512L23.0614 22.5802Z" fill="black"/>
<path fill-rule="evenodd" clip-rule="evenodd" d="M22.2885 11.7878H22.2815L7.4585 12.3808C7.3925 12.3838 7.3555 12.4218 7.3405 12.4448C7.3235 12.4668 7.2995 12.5138 7.3165 12.5768L7.6305 13.6718C7.6485 13.7378 7.7095 13.7828 7.7775 13.7828H21.6925C21.7575 13.7828 21.8155 13.7418 21.8375 13.6808L22.4335 11.9928C22.4565 11.9258 22.4305 11.8748 22.4125 11.8508C22.3945 11.8268 22.3555 11.7878 22.2885 11.7878M21.6925 14.5328H7.7775C7.3765 14.5328 7.0185 14.2638 6.9095 13.8768L6.5965 12.7828C6.5185 12.5158 6.5685 12.2318 6.7315 12.0048C6.8945 11.7788 7.1495 11.6418 7.4295 11.6318L22.2525 11.0388C22.5615 11.0298 22.8385 11.1638 23.0165 11.4058C23.1935 11.6478 23.2405 11.9608 23.1405 12.2438L22.5445 13.9308C22.4175 14.2908 22.0755 14.5328 21.6925 14.5328" fill="black"/>
<path fill-rule="evenodd" clip-rule="evenodd" d="M20.6713 18.9568C20.7473 18.9558 20.8093 18.9108 20.8253 18.8378L21.1863 17.3028C21.2003 17.2398 21.1743 17.1938 21.1563 17.1718C21.1393 17.1498 21.1013 17.1138 21.0353 17.1138H21.0343L8.9423 17.1998C8.8753 17.2008 8.8363 17.2388 8.8193 17.2618C8.8023 17.2848 8.7763 17.3318 8.7943 17.3958L9.1053 18.4808C9.1233 18.5448 9.1813 18.5898 9.2473 18.5918L20.6713 18.9568ZM20.6763 19.7068C20.6663 19.7068 20.6573 19.7068 20.6483 19.7068L9.2243 19.3418C8.8303 19.3298 8.4923 19.0658 8.3843 18.6868L8.0733 17.6018C7.9953 17.3278 8.0483 17.0398 8.2193 16.8118C8.3903 16.5838 8.6513 16.4518 8.9363 16.4498L21.0293 16.3638C21.3413 16.3558 21.5693 16.4868 21.7423 16.7048C21.9163 16.9218 21.9803 17.2028 21.9163 17.4748L21.5563 19.0098C21.4603 19.4178 21.0923 19.7068 20.6763 19.7068V19.7068Z" fill="black"/>
<path fill-rule="evenodd" clip-rule="evenodd" d="M6.5676 7.7107C6.5676 7.7107 7.3006 6.8217 8.4556 5.5387C9.0396 4.9017 9.7256 4.1637 10.4846 3.3887C10.8696 3.0067 11.2726 2.6167 11.6996 2.2287C11.9156 2.0357 12.1306 1.8417 12.3696 1.6537L12.5476 1.5117L12.5926 1.4767L12.6476 1.4367L12.7356 1.3747C12.8726 1.2817 13.0346 1.1817 13.2126 1.1117C13.3916 1.0397 13.6206 0.975701 13.8896 1.0097C14.1626 1.0397 14.3996 1.1927 14.5426 1.3247C14.6176 1.3917 14.6776 1.4557 14.7306 1.5127L14.7686 1.5547L14.8106 1.6047L14.8266 1.6267C14.8456 1.6517 14.8676 1.6767 14.9146 1.7557C15.0606 2.0107 15.0886 2.2357 15.0826 2.4577C15.0226 3.3207 14.4316 3.8057 14.0996 4.1687C13.3526 4.9577 12.6176 5.6477 11.9846 6.2367C11.3566 6.8307 10.8056 7.2967 10.4246 7.6267C10.0426 7.9557 9.8146 8.1347 9.8146 8.1347L9.4056 7.6937C9.4056 7.6937 10.1936 6.8647 11.3746 5.6197C11.9606 4.9957 12.6436 4.2677 13.3756 3.4877C13.5406 3.3027 13.7686 3.0707 13.8636 2.9267C13.9796 2.7587 14.0576 2.5537 14.0566 2.4207C14.0616 2.3617 14.0326 2.2977 14.0376 2.3057C14.0526 2.3207 14.0306 2.2897 14.0056 2.2587L13.9886 2.2377L13.9806 2.2277C13.9736 2.2197 14.0236 2.2797 14.0006 2.2517L13.9966 2.2477L13.9636 2.2097C13.9206 2.1617 13.8826 2.1217 13.8516 2.0927C13.7846 2.0337 13.7666 2.0287 13.7516 2.0267C13.7346 2.0227 13.6746 2.0257 13.5896 2.0597C13.4996 2.0937 13.4146 2.1427 13.3126 2.2077L13.2236 2.2687C13.2146 2.2747 13.1826 2.2967 13.1916 2.2907L13.1516 2.3217L12.9926 2.4447C12.7796 2.6067 12.5686 2.7907 12.3616 2.9707C11.9456 3.3347 11.5456 3.7137 11.1596 4.0807C10.3776 4.8077 9.6626 5.5087 9.0546 6.1137C7.8276 7.3157 7.0106 8.1177 7.0106 8.1177L6.5676 7.7107Z" fill="black"/>
<path fill-rule="evenodd" clip-rule="evenodd" d="M22.9532 8.3002C22.9532 8.3002 22.1352 7.7042 20.9082 6.8092C20.2962 6.3612 19.5802 5.8432 18.8022 5.3052C18.4142 5.0362 18.0132 4.7582 17.6062 4.4762C17.4002 4.3392 17.1932 4.2012 16.9852 4.0632L16.6702 3.8622C16.5772 3.8032 16.4222 3.7042 16.4262 3.7212C16.3172 3.6812 16.1872 3.6942 16.0882 3.7562C16.0382 3.7722 15.8042 4.0412 15.7462 4.1282C15.6942 4.2192 15.6832 4.3402 15.7272 4.4542C15.7492 4.5102 15.7832 4.5642 15.8272 4.6092C15.8492 4.6322 15.8722 4.6542 15.9002 4.6722L16.0432 4.7742C16.8242 5.3162 17.5402 5.8422 18.1542 6.2922C19.3842 7.1882 20.1832 7.8172 20.1832 7.8172L19.8432 8.3122C19.8432 8.3122 18.9742 7.7872 17.7012 6.9522C17.0642 6.5362 16.3202 6.0522 15.5372 5.5122L15.3872 5.4102C15.3152 5.3612 15.2472 5.3032 15.1842 5.2412C15.0582 5.1152 14.9552 4.9622 14.8852 4.7912C14.7432 4.4522 14.7502 4.0312 14.9412 3.6832C14.9692 3.6362 15.0022 3.5822 15.0302 3.5432L15.0872 3.4682L15.2262 3.3052C15.2822 3.2312 15.4592 3.0432 15.6192 2.9602C15.9532 2.7612 16.3782 2.7242 16.7452 2.8642C16.9902 2.9642 17.0382 3.0252 17.1602 3.0962L17.4822 3.3082C17.6932 3.4522 17.9032 3.5952 18.1122 3.7382C18.5252 4.0252 18.9282 4.3132 19.3132 4.5972C20.0782 5.1712 20.7792 5.7212 21.3772 6.1962C22.5612 7.1622 23.3272 7.8292 23.3272 7.8292L22.9532 8.3002Z" fill="black"/>
<path fill-rule="evenodd" clip-rule="evenodd" d="M64.2536 10.0519C64.8266 8.6869 65.5746 7.4119 66.5476 6.2689C67.0496 5.7159 67.5956 5.1789 68.2646 4.7819C68.9176 4.3769 69.6756 4.0619 70.4806 4.0219C71.2726 3.9279 72.1106 4.1469 72.7726 4.4039C73.5426 4.7349 74.1856 5.1879 74.7246 5.7699C75.2466 6.3549 75.6856 7.0209 75.9566 7.7499C76.2646 8.4669 76.4066 9.2359 76.4866 10.0029C76.5286 10.7719 76.5106 11.5529 76.3246 12.3059C76.1736 13.0649 75.8846 13.7929 75.5186 14.4769C75.1366 15.1409 74.6326 15.7969 74.1056 16.2969C73.6056 16.8109 73.0206 17.3989 72.4676 17.8639C70.2016 19.7399 67.7396 20.7359 65.1546 22.7359H65.1526L64.7046 22.8939L64.4656 22.3919C64.2086 21.8909 63.8666 21.3449 63.5076 20.8669C63.1476 20.3819 62.7476 19.9169 62.3216 19.4909C61.8996 19.0619 61.4506 18.6549 60.9706 18.2959C60.4976 17.9249 59.9806 17.6169 59.4566 17.3299C58.9016 17.0319 58.3276 16.7229 57.7786 16.3449C57.2296 15.9879 56.7136 15.5689 56.2306 15.1099C55.2746 14.1909 54.4726 13.0059 54.1686 11.6529C54.0096 10.9829 53.9676 10.2899 54.0236 9.6149C54.0366 9.4469 54.0656 9.2799 54.0856 9.1129C54.1016 9.0169 54.0986 8.9749 54.1296 8.8339L54.1856 8.6049C54.2416 8.3119 54.3666 7.9709 54.4976 7.6339C54.7816 7.0039 55.1176 6.4109 55.5826 5.9059C56.0246 5.3869 56.5656 4.9449 57.1796 4.6289C57.7776 4.2769 58.4766 4.1389 59.1576 4.0589C59.8456 4.0489 60.5376 4.1229 61.1666 4.3669C61.4846 4.4799 61.7966 4.6019 62.0776 4.7799C62.3686 4.9399 62.6586 5.0999 62.9096 5.3099C63.4536 5.6819 63.9026 6.1489 64.3686 6.5949L63.9656 6.9939C63.4976 6.5969 63.0486 6.1769 62.5296 5.8659C62.2866 5.6829 62.0156 5.5559 61.7476 5.4279C61.4866 5.2789 61.2046 5.1919 60.9246 5.1069C60.3696 4.9129 59.7886 4.8829 59.2226 4.9059C58.6666 5.0019 58.1046 5.1229 57.6226 5.4379C57.1306 5.7189 56.6846 6.0919 56.3226 6.5399C55.9386 6.9679 55.6636 7.4949 55.4416 8.0099C55.3516 8.2639 55.2536 8.5099 55.1956 8.8389L55.1446 9.0689L55.1236 9.2569L55.0786 9.6919C55.0436 10.2719 55.0986 10.8459 55.2246 11.4009C55.4756 12.5159 56.1386 13.5089 56.9866 14.3249C57.8546 15.1539 58.8476 15.7799 59.9626 16.3579C60.5426 16.6729 61.1116 17.0109 61.6306 17.4169C62.1556 17.8119 62.6536 18.2439 63.1036 18.7209C63.5556 19.1949 63.9746 19.6989 64.3526 20.2329C64.7336 20.7709 65.0706 21.3249 65.3736 21.9519L64.6856 21.7359H64.6876C65.9226 20.7359 67.1446 20.2699 68.3256 19.4759C69.5146 18.6909 70.6766 17.8549 71.7606 16.9479C72.3086 16.4829 72.8116 16.0429 73.3176 15.5239C73.8356 15.0279 74.2056 14.5209 74.5496 13.9409C74.8596 13.3549 75.1106 12.7299 75.2386 12.0729C75.4036 11.4229 75.4076 10.7459 75.3956 10.0789C75.3396 9.4159 75.2346 8.7459 74.9836 8.1309C74.7676 7.4999 74.4076 6.9369 73.9876 6.4379C73.5596 5.9469 73.0036 5.5569 72.4586 5.2969C71.7926 5.0259 71.1936 4.8609 70.5436 4.9169C69.9026 4.9289 69.2766 5.1709 68.7046 5.5059C68.1186 5.8289 67.6176 6.3119 67.1336 6.8009C66.1896 7.8119 65.4036 9.0209 64.8066 10.2869L64.2536 10.0519Z" fill="#181716"/>
<path fill-rule="evenodd" clip-rule="evenodd" d="M113.77 8.8172C113.971 8.8092 114.252 8.7862 114.584 8.7302C114.918 8.6812 115.3 8.5842 115.701 8.4592C116.099 8.3202 116.519 8.1522 116.907 7.9212C117.302 7.7052 117.663 7.4272 117.973 7.1412C118.012 7.1102 118.043 7.0742 118.078 7.0402C118.126 7.1202 118.181 7.2072 118.244 7.3012C118.483 7.6662 118.839 8.1282 119.261 8.5302C119.679 8.9372 120.16 9.2772 120.547 9.4852C120.739 9.5932 120.906 9.6682 121.026 9.7152C121.144 9.7652 121.211 9.7942 121.211 9.7942L121.429 9.2512C121.429 9.2512 121.371 9.2232 121.269 9.1732C121.166 9.1272 121.021 9.0532 120.857 8.9492C120.524 8.7482 120.112 8.4252 119.756 8.0422C119.396 7.6632 119.095 7.2292 118.897 6.8922C118.763 6.6672 118.682 6.5012 118.64 6.4092C118.673 6.3632 118.707 6.3172 118.737 6.2722C118.833 6.1312 118.936 6.0012 118.997 5.8882C119.058 5.7742 119.112 5.6762 119.156 5.5942C119.244 5.4312 119.295 5.3382 119.295 5.3382L118.787 5.0472C118.787 5.0472 118.733 5.1372 118.637 5.2962C118.589 5.3752 118.53 5.4712 118.463 5.5812C118.397 5.6922 118.308 5.7842 118.22 5.9022C118.133 6.0172 118.036 6.1402 117.908 6.2582C117.786 6.3772 117.669 6.5142 117.517 6.6232C117.233 6.8602 116.906 7.0892 116.549 7.2612C116.2 7.4472 115.821 7.5762 115.465 7.6822C115.104 7.7752 114.762 7.8452 114.465 7.8732C113.871 7.9442 113.478 7.9032 113.499 7.9062L113.44 8.8212C113.44 8.8212 113.472 8.8222 113.534 8.8232C113.59 8.8232 113.671 8.8222 113.77 8.8172" fill="black"/>
<mask id="mask0" mask-type="alpha" maskUnits="userSpaceOnUse" x="105" y="1" width="20" height="25">
<path fill-rule="evenodd" clip-rule="evenodd" d="M124.059 1.00007V25.9485H105V1.00007L124.059 1.00007V1.00007Z" fill="white"/>
</mask>
<g mask="url(#mask0)">
<path fill-rule="evenodd" clip-rule="evenodd" d="M111.671 17.6647V17.6647C109.554 15.6607 108.916 12.0237 108.756 10.7817C108.876 10.7277 108.998 10.6787 109.118 10.6227C109.398 10.4897 109.667 10.3517 109.946 10.1907C110.091 10.1087 110.196 10.0427 110.339 9.9457C110.466 9.8557 110.597 9.7737 110.72 9.6787C111.219 9.3137 111.69 8.9127 112.123 8.4757C112.547 8.0267 112.948 7.5717 113.287 7.0347L112.807 6.6997C112.446 7.1277 112.031 7.5467 111.597 7.9207C111.163 8.2997 110.708 8.6527 110.227 8.9627C110.109 9.0437 109.983 9.1127 109.862 9.1887L109.49 9.4007C109.251 9.5337 108.987 9.6627 108.727 9.7797C108.429 9.9147 108.12 10.0387 107.811 10.1547C107.865 9.6037 107.932 9.0507 108.029 8.5087C108.172 7.7287 108.355 6.9497 108.649 6.2507C108.954 5.5217 109.336 4.8637 109.83 4.2627C110.317 3.6667 110.893 3.1477 111.542 2.7487C112.19 2.3487 112.916 2.0877 113.666 1.9667C114.412 1.8457 115.206 1.8647 115.979 1.9677C117.521 2.1677 119.004 2.8167 120.045 3.9437C121.101 5.0587 121.676 6.5757 121.905 8.1327C122.033 8.9287 122.045 9.6677 121.934 10.4637C121.826 11.2557 121.697 12.0997 121.677 12.9337C121.634 13.7697 121.697 14.6337 121.838 15.4497C121.905 15.8617 121.987 16.2677 122.068 16.6677C122.106 16.8647 122.153 17.0747 122.176 17.2507C122.197 17.4137 122.191 17.5697 122.15 17.7007C122.071 17.9517 121.843 18.0807 121.499 18.0847C121.17 18.0897 120.779 17.9647 120.369 17.8767C119.847 17.7497 119.275 17.6827 118.71 17.7307C120.275 15.7747 120.914 12.7777 121.156 11.1537L120.577 11.0677C120.222 13.4617 118.973 19.0277 115.065 19.0277C113.642 19.0277 112.534 18.4827 111.671 17.6657V17.6647ZM109.887 17.8917C109.619 17.9257 109.329 17.9627 109.023 18.0017C108.756 18.0347 108.457 18.0337 108.26 17.9567C108.07 17.8837 107.985 17.7607 107.949 17.4707C107.92 17.1937 107.968 16.8527 108.031 16.5127C108.094 16.1697 108.178 15.8187 108.236 15.4487C108.294 15.0717 108.307 14.7067 108.307 14.3567C108.308 13.6507 108.192 13.0017 108.126 12.4847C108.055 11.8977 107.998 11.4237 107.961 11.1097C108.039 11.0797 108.121 11.0517 108.199 11.0207C108.392 12.3847 109.04 15.6667 110.947 17.7567C110.66 17.7937 110.301 17.8387 109.887 17.8917V17.8917ZM123.869 24.8657C123.775 24.6107 123.708 24.3507 123.59 24.1047C123.479 23.8557 123.366 23.6107 123.216 23.3797C123.087 23.1417 122.909 22.9287 122.746 22.7127C122.563 22.5097 122.38 22.3097 122.169 22.1367C121.963 21.9597 121.743 21.8007 121.51 21.6657C121.28 21.5247 121.034 21.4147 120.785 21.3157C120.657 21.2727 120.533 21.2267 120.401 21.1937C120.269 21.1567 120.145 21.1317 119.99 21.1087L119.78 21.0787L119.679 21.2777L119.677 21.2817C119.592 21.4447 119.444 21.6377 119.289 21.7937C119.136 21.9587 118.956 22.1017 118.773 22.2387C118.584 22.3697 118.386 22.4877 118.178 22.5927C117.967 22.6907 117.757 22.7917 117.532 22.8607C117.092 23.0227 116.624 23.1117 116.156 23.1857C115.92 23.2067 115.694 23.2397 115.451 23.2517C115.21 23.2577 114.947 23.2737 114.726 23.2697C114.246 23.2617 113.768 23.2327 113.298 23.1597C112.829 23.0847 112.365 22.9777 111.923 22.8177C111.704 22.7347 111.483 22.6507 111.278 22.5417C111.068 22.4387 110.868 22.3187 110.677 22.1887C110.538 22.0917 110.406 21.9867 110.28 21.8757C110.391 21.8217 110.538 21.7427 110.711 21.6367C111.075 21.4187 111.534 21.0857 111.953 20.7087C112.375 20.3347 112.756 19.9197 113.025 19.5917C113.113 19.4877 113.185 19.3957 113.249 19.3117C113.796 19.5017 114.397 19.6127 115.065 19.6127C115.612 19.6127 116.112 19.5197 116.568 19.3517C116.704 19.5287 116.914 19.7937 117.178 20.0957L117.351 20.2957C117.615 20.6027 117.823 20.8457 118.263 21.1837L118.62 20.7207C118.228 20.4187 118.055 20.2187 117.794 19.9147L117.618 19.7107C117.414 19.4777 117.242 19.2657 117.115 19.1017C117.438 18.9277 117.737 18.7147 118.013 18.4707C118.721 18.2457 119.473 18.2947 120.226 18.4887C120.612 18.5747 121.007 18.7247 121.5 18.7367C121.741 18.7387 122.005 18.6987 122.254 18.5627C122.504 18.4297 122.7 18.1787 122.79 17.9207C122.878 17.6627 122.886 17.4007 122.86 17.1597C122.833 16.9297 122.79 16.7397 122.754 16.5347C122.679 16.1327 122.605 15.7367 122.547 15.3397C122.425 14.5427 122.372 13.7667 122.435 12.9697C122.48 12.1677 122.596 11.3927 122.718 10.5667C122.846 9.7437 122.838 8.8317 122.708 8.0127C122.587 7.1767 122.379 6.3447 122.047 5.5507C121.714 4.7597 121.258 4.0067 120.662 3.3687C120.071 2.7287 119.352 2.2057 118.569 1.8307C117.786 1.4557 116.947 1.2217 116.1 1.1017C115.256 0.984699 114.398 0.954699 113.527 1.0867C112.664 1.2207 111.82 1.5187 111.073 1.9727C110.325 2.4257 109.668 3.0127 109.117 3.6777C108.565 4.3347 108.116 5.1057 107.786 5.8817C107.442 6.6907 107.248 7.5137 107.091 8.3377C106.941 9.1657 106.831 9.9827 106.782 10.8317L106.741 11.5407L107.382 11.3237C107.411 11.6327 107.45 12.0517 107.497 12.5537C107.554 13.1077 107.645 13.7057 107.627 14.3517C107.618 14.6757 107.598 15.0077 107.539 15.3307C107.478 15.6587 107.386 16.0057 107.309 16.3677C107.234 16.7317 107.158 17.1087 107.186 17.5387C107.203 17.7527 107.253 17.9897 107.387 18.2117C107.52 18.4347 107.744 18.6027 107.956 18.6897C108.391 18.8617 108.769 18.8407 109.111 18.8167C109.419 18.7867 109.71 18.7587 109.978 18.7327C111.052 18.6297 111.768 18.5607 111.768 18.5607L111.763 18.5127C111.957 18.6607 112.163 18.7947 112.378 18.9167C112.351 18.9577 112.327 18.9947 112.296 19.0407C112.078 19.3597 111.763 19.7737 111.408 20.1507C111.056 20.5307 110.665 20.8707 110.353 21.0987C110.199 21.2147 110.065 21.3027 109.968 21.3597C109.917 21.3917 109.88 21.4147 109.854 21.4307C109.808 21.3717 109.759 21.3117 109.726 21.2577L109.617 20.8787L109.421 20.7097H109.415C109.255 20.7097 109.131 20.9677 108.996 21.0087C108.865 21.0487 108.736 21.1947 108.61 21.2467C108.358 21.3497 108.115 21.5257 107.885 21.6697C107.654 21.8127 107.43 21.9957 107.225 22.1737C107.119 22.2597 107.015 22.3607 106.921 22.4587C106.826 22.5547 106.722 22.6517 106.634 22.7547C106.455 22.9587 106.275 23.1677 106.122 23.3917C105.954 23.6067 105.822 23.8437 105.679 24.0747C105.539 24.3077 105.423 24.5667 105.296 24.8147L105 25.5167L106.231 25.9487L106.44 25.2227C106.522 25.0127 106.586 24.7977 106.682 24.5847C106.781 24.3737 106.87 24.1537 106.992 23.9547C107.1 23.7457 107.232 23.5547 107.364 23.3617C107.428 23.2637 107.507 23.1787 107.578 23.0857C107.648 22.9917 107.727 22.9067 107.808 22.8227C107.965 22.6497 108.139 22.4937 108.321 22.3477C108.503 22.2017 108.697 22.0697 108.9 21.9567C109.001 21.8997 109.105 21.8477 109.21 21.8017C109.258 21.7797 109.31 21.7597 109.359 21.7407C109.478 21.8987 109.6 22.0397 109.736 22.1737C109.924 22.3607 110.131 22.5207 110.345 22.6697C110.56 22.8167 110.783 22.9507 111.015 23.0637C111.244 23.1847 111.485 23.2777 111.725 23.3677C112.208 23.5427 112.707 23.6577 113.209 23.7377C113.711 23.8157 114.217 23.8467 114.721 23.8547C114.991 23.8577 115.219 23.8417 115.471 23.8367C115.719 23.8247 115.98 23.7887 116.234 23.7657C116.737 23.6857 117.24 23.5907 117.725 23.4127C117.97 23.3357 118.206 23.2247 118.44 23.1157C118.673 22.9987 118.897 22.8647 119.112 22.7157C119.323 22.5587 119.529 22.3937 119.712 22.1987C119.845 22.0587 119.962 21.9087 120.073 21.7407C120.118 21.7557 120.164 21.7717 120.208 21.7907C120.314 21.8297 120.416 21.8827 120.519 21.9297C120.719 22.0387 120.915 22.1537 121.093 22.2937C121.275 22.4287 121.442 22.5817 121.594 22.7457C121.75 22.9067 121.881 23.0897 122.011 23.2697C122.122 23.4647 122.248 23.6477 122.33 23.8577C122.43 24.0567 122.499 24.2717 122.567 24.4847C122.642 24.6947 122.671 24.9257 122.726 25.1417C122.76 25.3657 122.781 25.5937 122.811 25.8177L124.06 25.6477C123.996 25.3857 123.94 25.1237 123.869 24.8657V24.8657Z" fill="black"/>
</g>
<path fill-rule="evenodd" clip-rule="evenodd" d="M23.0614 58.5802C23.0614 58.5802 24.7434 54.3702 27.2664 48.0542C27.5674 47.2802 27.9404 46.4092 28.2194 45.6252C28.2884 45.3472 28.2044 44.9562 27.9784 44.7222C27.8674 44.6012 27.7284 44.5122 27.5774 44.4692C27.4994 44.4482 27.4254 44.4392 27.3374 44.4372L26.9734 44.4392C25.0254 44.4462 22.9704 44.4542 20.8454 44.4622C16.5954 44.4792 12.0614 44.4972 7.5274 44.5142C6.3944 44.5182 5.2604 44.5222 4.1314 44.5272L3.2864 44.5302C3.0164 44.5312 2.6594 44.5222 2.6124 44.5722C2.3004 44.6662 2.0634 45.0202 2.0584 45.3752C2.0374 45.6482 2.3334 46.2822 2.4874 46.7792C2.6714 47.3002 2.8534 47.8192 3.0354 48.3352C3.3984 49.3662 3.7574 50.3852 4.1104 51.3882C4.8164 53.3922 5.4994 55.3302 6.1454 57.1672C6.3254 57.7072 6.3954 57.8922 6.6474 58.0382C6.7684 58.1052 6.8674 58.1322 7.0254 58.1302C7.2584 58.1292 7.4894 58.1282 7.7184 58.1272C8.6354 58.1242 9.5204 58.1212 10.3704 58.1172C17.1714 58.0912 21.7054 58.0742 21.7054 58.0742V59.3572C21.7054 59.3572 17.1714 59.3402 10.3704 59.3132C9.5204 59.3102 8.6354 59.3072 7.7184 59.3032C7.4894 59.3022 7.2584 59.3012 7.0254 59.3002C6.7184 59.3072 6.3434 59.2202 6.0574 59.0422C5.7624 58.8672 5.5174 58.6132 5.3544 58.3162C5.1734 57.9652 5.1504 57.7882 5.0564 57.5462C4.4234 55.7042 3.7564 53.7612 3.0654 51.7512C2.7204 50.7462 2.3694 49.7242 2.0144 48.6902C1.8364 48.1732 1.6574 47.6522 1.4784 47.1302L1.2074 46.3432C1.1304 46.1232 0.979399 45.7262 1.0024 45.3442C1.0244 44.5882 1.5084 43.8322 2.2854 43.5822C2.7754 43.4392 2.9974 43.5112 3.2864 43.4942L4.1314 43.4972C5.2604 43.5012 6.3944 43.5062 7.5274 43.5102C12.0614 43.5282 16.5954 43.5452 20.8454 43.5622C22.9704 43.5702 25.0254 43.5782 26.9734 43.5852L27.3374 43.5872C27.4924 43.5892 27.6574 43.6102 27.8114 43.6542C28.1224 43.7452 28.3964 43.9272 28.6024 44.1572C29.0154 44.6252 29.1714 45.2462 29.0174 45.8572C28.6774 46.7962 28.3374 47.5512 28.0184 48.3582C25.4464 54.6542 23.7324 58.8512 23.7324 58.8512L23.0614 58.5802Z" fill="#F08B98"/>
<path fill-rule="evenodd" clip-rule="evenodd" d="M22.2885 47.7878H22.2815L7.4585 48.3808C7.3925 48.3838 7.3555 48.4218 7.3405 48.4448C7.3235 48.4668 7.2995 48.5138 7.3165 48.5768L7.6305 49.6718C7.6485 49.7378 7.7095 49.7828 7.7775 49.7828H21.6925C21.7575 49.7828 21.8155 49.7418 21.8375 49.6808L22.4335 47.9928C22.4565 47.9258 22.4305 47.8748 22.4125 47.8508C22.3945 47.8268 22.3555 47.7878 22.2885 47.7878M21.6925 50.5328H7.7775C7.3765 50.5328 7.0185 50.2638 6.9095 49.8768L6.5965 48.7828C6.5185 48.5158 6.5685 48.2318 6.7315 48.0048C6.8945 47.7788 7.1495 47.6418 7.4295 47.6318L22.2525 47.0388C22.5615 47.0298 22.8385 47.1638 23.0165 47.4058C23.1935 47.6478 23.2405 47.9608 23.1405 48.2438L22.5445 49.9308C22.4175 50.2908 22.0755 50.5328 21.6925 50.5328" fill="#F08B98"/>
<path fill-rule="evenodd" clip-rule="evenodd" d="M20.6713 54.9568C20.7473 54.9558 20.8093 54.9108 20.8253 54.8378L21.1863 53.3028C21.2003 53.2398 21.1743 53.1938 21.1563 53.1718C21.1393 53.1498 21.1013 53.1138 21.0353 53.1138H21.0343L8.9423 53.1998C8.8753 53.2008 8.8363 53.2388 8.8193 53.2618C8.8023 53.2848 8.7763 53.3318 8.7943 53.3958L9.1053 54.4808C9.1233 54.5448 9.1813 54.5898 9.2473 54.5918L20.6713 54.9568ZM20.6763 55.7068C20.6663 55.7068 20.6573 55.7068 20.6483 55.7068L9.2243 55.3418C8.8303 55.3298 8.4923 55.0658 8.3843 54.6868L8.0733 53.6018C7.9953 53.3278 8.0483 53.0398 8.2193 52.8118C8.3903 52.5838 8.6513 52.4518 8.9363 52.4498L21.0293 52.3638C21.3413 52.3558 21.5693 52.4868 21.7423 52.7048C21.9163 52.9218 21.9803 53.2028 21.9163 53.4748L21.5563 55.0098C21.4603 55.4178 21.0923 55.7068 20.6763 55.7068V55.7068Z" fill="#F08B98"/>
<path fill-rule="evenodd" clip-rule="evenodd" d="M6.5676 43.7107C6.5676 43.7107 7.3006 42.8217 8.4556 41.5387C9.0396 40.9017 9.7256 40.1637 10.4846 39.3887C10.8696 39.0067 11.2726 38.6167 11.6996 38.2287C11.9156 38.0357 12.1306 37.8417 12.3696 37.6537L12.5476 37.5117L12.5926 37.4767L12.6476 37.4367L12.7356 37.3747C12.8726 37.2817 13.0346 37.1817 13.2126 37.1117C13.3916 37.0397 13.6206 36.9757 13.8896 37.0097C14.1626 37.0397 14.3996 37.1927 14.5426 37.3247C14.6176 37.3917 14.6776 37.4557 14.7306 37.5127L14.7686 37.5547L14.8106 37.6047L14.8266 37.6267C14.8456 37.6517 14.8676 37.6767 14.9146 37.7557C15.0606 38.0107 15.0886 38.2357 15.0826 38.4577C15.0226 39.3207 14.4316 39.8057 14.0996 40.1687C13.3526 40.9577 12.6176 41.6477 11.9846 42.2367C11.3566 42.8307 10.8056 43.2967 10.4246 43.6267C10.0426 43.9557 9.8146 44.1347 9.8146 44.1347L9.4056 43.6937C9.4056 43.6937 10.1936 42.8647 11.3746 41.6197C11.9606 40.9957 12.6436 40.2677 13.3756 39.4877C13.5406 39.3027 13.7686 39.0707 13.8636 38.9267C13.9796 38.7587 14.0576 38.5537 14.0566 38.4207C14.0616 38.3617 14.0326 38.2977 14.0376 38.3057C14.0526 38.3207 14.0306 38.2897 14.0056 38.2587L13.9886 38.2377L13.9806 38.2277C13.9736 38.2197 14.0236 38.2797 14.0006 38.2517L13.9966 38.2477L13.9636 38.2097C13.9206 38.1617 13.8826 38.1217 13.8516 38.0927C13.7846 38.0337 13.7666 38.0287 13.7516 38.0267C13.7346 38.0227 13.6746 38.0257 13.5896 38.0597C13.4996 38.0937 13.4146 38.1427 13.3126 38.2077L13.2236 38.2687C13.2146 38.2747 13.1826 38.2967 13.1916 38.2907L13.1516 38.3217L12.9926 38.4447C12.7796 38.6067 12.5686 38.7907 12.3616 38.9707C11.9456 39.3347 11.5456 39.7137 11.1596 40.0807C10.3776 40.8077 9.6626 41.5087 9.0546 42.1137C7.8276 43.3157 7.0106 44.1177 7.0106 44.1177L6.5676 43.7107Z" fill="#F08B98"/>
<path fill-rule="evenodd" clip-rule="evenodd" d="M22.9532 44.3002C22.9532 44.3002 22.1352 43.7042 20.9082 42.8092C20.2962 42.3612 19.5802 41.8432 18.8022 41.3052C18.4142 41.0362 18.0132 40.7582 17.6062 40.4762C17.4002 40.3392 17.1932 40.2012 16.9852 40.0632L16.6702 39.8622C16.5772 39.8032 16.4222 39.7042 16.4262 39.7212C16.3172 39.6812 16.1872 39.6942 16.0882 39.7562C16.0382 39.7722 15.8042 40.0412 15.7462 40.1282C15.6942 40.2192 15.6832 40.3402 15.7272 40.4542C15.7492 40.5102 15.7832 40.5642 15.8272 40.6092C15.8492 40.6322 15.8722 40.6542 15.9002 40.6722L16.0432 40.7742C16.8242 41.3162 17.5402 41.8422 18.1542 42.2922C19.3842 43.1882 20.1832 43.8172 20.1832 43.8172L19.8432 44.3122C19.8432 44.3122 18.9742 43.7872 17.7012 42.9522C17.0642 42.5362 16.3202 42.0522 15.5372 41.5122L15.3872 41.4102C15.3152 41.3612 15.2472 41.3032 15.1842 41.2412C15.0582 41.1152 14.9552 40.9622 14.8852 40.7912C14.7432 40.4522 14.7502 40.0312 14.9412 39.6832C14.9692 39.6362 15.0022 39.5822 15.0302 39.5432L15.0872 39.4682L15.2262 39.3052C15.2822 39.2312 15.4592 39.0432 15.6192 38.9602C15.9532 38.7612 16.3782 38.7242 16.7452 38.8642C16.9902 38.9642 17.0382 39.0252 17.1602 39.0962L17.4822 39.3082C17.6932 39.4522 17.9032 39.5952 18.1122 39.7382C18.5252 40.0252 18.9282 40.3132 19.3132 40.5972C20.0782 41.1712 20.7792 41.7212 21.3772 42.1962C22.5612 43.1622 23.3272 43.8292 23.3272 43.8292L22.9532 44.3002Z" fill="#F08B98"/>
<path fill-rule="evenodd" clip-rule="evenodd" d="M64.2536 46.0519C64.8266 44.6869 65.5746 43.4119 66.5476 42.2689C67.0496 41.7159 67.5956 41.1789 68.2646 40.7819C68.9176 40.3769 69.6756 40.0619 70.4806 40.0219C71.2726 39.9279 72.1106 40.1469 72.7726 40.4039C73.5426 40.7349 74.1856 41.1879 74.7246 41.7699C75.2466 42.3549 75.6856 43.0209 75.9566 43.7499C76.2646 44.4669 76.4066 45.2359 76.4866 46.0029C76.5286 46.7719 76.5106 47.5529 76.3246 48.3059C76.1736 49.0649 75.8846 49.7929 75.5186 50.4769C75.1366 51.1409 74.6326 51.7969 74.1056 52.2969C73.6056 52.8109 73.0206 53.3989 72.4676 53.8639C70.2016 55.7399 67.7396 56.7359 65.1546 58.7359H65.1526L64.7046 58.8939L64.4656 58.3919C64.2086 57.8909 63.8666 57.3449 63.5076 56.8669C63.1476 56.3819 62.7476 55.9169 62.3216 55.4909C61.8996 55.0619 61.4506 54.6549 60.9706 54.2959C60.4976 53.9249 59.9806 53.6169 59.4566 53.3299C58.9016 53.0319 58.3276 52.7229 57.7786 52.3449C57.2296 51.9879 56.7136 51.5689 56.2306 51.1099C55.2746 50.1909 54.4726 49.0059 54.1686 47.6529C54.0096 46.9829 53.9676 46.2899 54.0236 45.6149C54.0366 45.4469 54.0656 45.2799 54.0856 45.1129C54.1016 45.0169 54.0986 44.9749 54.1296 44.8339L54.1856 44.6049C54.2416 44.3119 54.3666 43.9709 54.4976 43.6339C54.7816 43.0039 55.1176 42.4109 55.5826 41.9059C56.0246 41.3869 56.5656 40.9449 57.1796 40.6289C57.7776 40.2769 58.4766 40.1389 59.1576 40.0589C59.8456 40.0489 60.5376 40.1229 61.1666 40.3669C61.4846 40.4799 61.7966 40.6019 62.0776 40.7799C62.3686 40.9399 62.6586 41.0999 62.9096 41.3099C63.4536 41.6819 63.9026 42.1489 64.3686 42.5949L63.9656 42.9939C63.4976 42.5969 63.0486 42.1769 62.5296 41.8659C62.2866 41.6829 62.0156 41.5559 61.7476 41.4279C61.4866 41.2789 61.2046 41.1919 60.9246 41.1069C60.3696 40.9129 59.7886 40.8829 59.2226 40.9059C58.6666 41.0019 58.1046 41.1229 57.6226 41.4379C57.1306 41.7189 56.6846 42.0919 56.3226 42.5399C55.9386 42.9679 55.6636 43.4949 55.4416 44.0099C55.3516 44.2639 55.2536 44.5099 55.1956 44.8389L55.1446 45.0689L55.1236 45.2569L55.0786 45.6919C55.0436 46.2719 55.0986 46.8459 55.2246 47.4009C55.4756 48.5159 56.1386 49.5089 56.9866 50.3249C57.8546 51.1539 58.8476 51.7799 59.9626 52.3579C60.5426 52.6729 61.1116 53.0109 61.6306 53.4169C62.1556 53.8119 62.6536 54.2439 63.1036 54.7209C63.5556 55.1949 63.9746 55.6989 64.3526 56.2329C64.7336 56.7709 65.0706 57.3249 65.3736 57.9519L64.6856 57.7359H64.6876C65.9226 56.7359 67.1446 56.2699 68.3256 55.4759C69.5146 54.6909 70.6766 53.8549 71.7606 52.9479C72.3086 52.4829 72.8116 52.0429 73.3176 51.5239C73.8356 51.0279 74.2056 50.5209 74.5496 49.9409C74.8596 49.3549 75.1106 48.7299 75.2386 48.0729C75.4036 47.4229 75.4076 46.7459 75.3956 46.0789C75.3396 45.4159 75.2346 44.7459 74.9836 44.1309C74.7676 43.4999 74.4076 42.9369 73.9876 42.4379C73.5596 41.9469 73.0036 41.5569 72.4586 41.2969C71.7926 41.0259 71.1936 40.8609 70.5436 40.9169C69.9026 40.9289 69.2766 41.1709 68.7046 41.5059C68.1186 41.8289 67.6176 42.3119 67.1336 42.8009C66.1896 43.8119 65.4036 45.0209 64.8066 46.2869L64.2536 46.0519Z" fill="#F08B98"/>
<path fill-rule="evenodd" clip-rule="evenodd" d="M113.77 44.8172C113.971 44.8092 114.252 44.7862 114.584 44.7302C114.918 44.6812 115.3 44.5842 115.701 44.4592C116.099 44.3202 116.519 44.1522 116.907 43.9212C117.302 43.7052 117.663 43.4272 117.973 43.1412C118.012 43.1102 118.043 43.0742 118.078 43.0402C118.126 43.1202 118.181 43.2072 118.244 43.3012C118.483 43.6662 118.839 44.1282 119.261 44.5302C119.679 44.9372 120.16 45.2772 120.547 45.4852C120.739 45.5932 120.906 45.6682 121.026 45.7152C121.144 45.7652 121.211 45.7942 121.211 45.7942L121.429 45.2512C121.429 45.2512 121.371 45.2232 121.269 45.1732C121.166 45.1272 121.021 45.0532 120.857 44.9492C120.524 44.7482 120.112 44.4252 119.756 44.0422C119.396 43.6632 119.095 43.2292 118.897 42.8922C118.763 42.6672 118.682 42.5012 118.64 42.4092C118.673 42.3632 118.707 42.3172 118.737 42.2722C118.833 42.1312 118.936 42.0012 118.997 41.8882C119.058 41.7742 119.112 41.6762 119.156 41.5942C119.244 41.4312 119.295 41.3382 119.295 41.3382L118.787 41.0472C118.787 41.0472 118.733 41.1372 118.637 41.2962C118.589 41.3752 118.53 41.4712 118.463 41.5812C118.397 41.6922 118.308 41.7842 118.22 41.9022C118.133 42.0172 118.036 42.1402 117.908 42.2582C117.786 42.3772 117.669 42.5142 117.517 42.6232C117.233 42.8602 116.906 43.0892 116.549 43.2612C116.2 43.4472 115.821 43.5762 115.465 43.6822C115.104 43.7752 114.762 43.8452 114.465 43.8732C113.871 43.9442 113.478 43.9032 113.499 43.9062L113.44 44.8212C113.44 44.8212 113.472 44.8222 113.534 44.8232C113.59 44.8232 113.671 44.8222 113.77 44.8172" fill="#F08B98"/>
<mask id="mask1" mask-type="alpha" maskUnits="userSpaceOnUse" x="105" y="37" width="20" height="25">
<path fill-rule="evenodd" clip-rule="evenodd" d="M124.059 37.0001V61.9485H105V37.0001L124.059 37.0001V37.0001Z" fill="white"/>
</mask>
<g mask="url(#mask1)">
<path fill-rule="evenodd" clip-rule="evenodd" d="M111.671 53.6647V53.6647C109.554 51.6607 108.916 48.0237 108.756 46.7817C108.876 46.7277 108.998 46.6787 109.118 46.6227C109.398 46.4897 109.667 46.3517 109.946 46.1907C110.091 46.1087 110.196 46.0427 110.339 45.9457C110.466 45.8557 110.597 45.7737 110.72 45.6787C111.219 45.3137 111.69 44.9127 112.123 44.4757C112.547 44.0267 112.948 43.5717 113.287 43.0347L112.807 42.6997C112.446 43.1277 112.031 43.5467 111.597 43.9207C111.163 44.2997 110.708 44.6527 110.227 44.9627C110.109 45.0437 109.983 45.1127 109.862 45.1887L109.49 45.4007C109.251 45.5337 108.987 45.6627 108.727 45.7797C108.429 45.9147 108.12 46.0387 107.811 46.1547C107.865 45.6037 107.932 45.0507 108.029 44.5087C108.172 43.7287 108.355 42.9497 108.649 42.2507C108.954 41.5217 109.336 40.8637 109.83 40.2627C110.317 39.6667 110.893 39.1477 111.542 38.7487C112.19 38.3487 112.916 38.0877 113.666 37.9667C114.412 37.8457 115.206 37.8647 115.979 37.9677C117.521 38.1677 119.004 38.8167 120.045 39.9437C121.101 41.0587 121.676 42.5757 121.905 44.1327C122.033 44.9287 122.045 45.6677 121.934 46.4637C121.826 47.2557 121.697 48.0997 121.677 48.9337C121.634 49.7697 121.697 50.6337 121.838 51.4497C121.905 51.8617 121.987 52.2677 122.068 52.6677C122.106 52.8647 122.153 53.0747 122.176 53.2507C122.197 53.4137 122.191 53.5697 122.15 53.7007C122.071 53.9517 121.843 54.0807 121.499 54.0847C121.17 54.0897 120.779 53.9647 120.369 53.8767C119.847 53.7497 119.275 53.6827 118.71 53.7307C120.275 51.7747 120.914 48.7777 121.156 47.1537L120.577 47.0677C120.222 49.4617 118.973 55.0277 115.065 55.0277C113.642 55.0277 112.534 54.4827 111.671 53.6657V53.6647ZM109.887 53.8917C109.619 53.9257 109.329 53.9627 109.023 54.0017C108.756 54.0347 108.457 54.0337 108.26 53.9567C108.07 53.8837 107.985 53.7607 107.949 53.4707C107.92 53.1937 107.968 52.8527 108.031 52.5127C108.094 52.1697 108.178 51.8187 108.236 51.4487C108.294 51.0717 108.307 50.7067 108.307 50.3567C108.308 49.6507 108.192 49.0017 108.126 48.4847C108.055 47.8977 107.998 47.4237 107.961 47.1097C108.039 47.0797 108.121 47.0517 108.199 47.0207C108.392 48.3847 109.04 51.6667 110.947 53.7567C110.66 53.7937 110.301 53.8387 109.887 53.8917V53.8917ZM123.869 60.8657C123.775 60.6107 123.708 60.3507 123.59 60.1047C123.479 59.8557 123.366 59.6107 123.216 59.3797C123.087 59.1417 122.909 58.9287 122.746 58.7127C122.563 58.5097 122.38 58.3097 122.169 58.1367C121.963 57.9597 121.743 57.8007 121.51 57.6657C121.28 57.5247 121.034 57.4147 120.785 57.3157C120.657 57.2727 120.533 57.2267 120.401 57.1937C120.269 57.1567 120.145 57.1317 119.99 57.1087L119.78 57.0787L119.679 57.2777L119.677 57.2817C119.592 57.4447 119.444 57.6377 119.289 57.7937C119.136 57.9587 118.956 58.1017 118.773 58.2387C118.584 58.3697 118.386 58.4877 118.178 58.5927C117.967 58.6907 117.757 58.7917 117.532 58.8607C117.092 59.0227 116.624 59.1117 116.156 59.1857C115.92 59.2067 115.694 59.2397 115.451 59.2517C115.21 59.2577 114.947 59.2737 114.726 59.2697C114.246 59.2617 113.768 59.2327 113.298 59.1597C112.829 59.0847 112.365 58.9777 111.923 58.8177C111.704 58.7347 111.483 58.6507 111.278 58.5417C111.068 58.4387 110.868 58.3187 110.677 58.1887C110.538 58.0917 110.406 57.9867 110.28 57.8757C110.391 57.8217 110.538 57.7427 110.711 57.6367C111.075 57.4187 111.534 57.0857 111.953 56.7087C112.375 56.3347 112.756 55.9197 113.025 55.5917C113.113 55.4877 113.185 55.3957 113.249 55.3117C113.796 55.5017 114.397 55.6127 115.065 55.6127C115.612 55.6127 116.112 55.5197 116.568 55.3517C116.704 55.5287 116.914 55.7937 117.178 56.0957L117.351 56.2957C117.615 56.6027 117.823 56.8457 118.263 57.1837L118.62 56.7207C118.228 56.4187 118.055 56.2187 117.794 55.9147L117.618 55.7107C117.414 55.4777 117.242 55.2657 117.115 55.1017C117.438 54.9277 117.737 54.7147 118.013 54.4707C118.721 54.2457 119.473 54.2947 120.226 54.4887C120.612 54.5747 121.007 54.7247 121.5 54.7367C121.741 54.7387 122.005 54.6987 122.254 54.5627C122.504 54.4297 122.7 54.1787 122.79 53.9207C122.878 53.6627 122.886 53.4007 122.86 53.1597C122.833 52.9297 122.79 52.7397 122.754 52.5347C122.679 52.1327 122.605 51.7367 122.547 51.3397C122.425 50.5427 122.372 49.7667 122.435 48.9697C122.48 48.1677 122.596 47.3927 122.718 46.5667C122.846 45.7437 122.838 44.8317 122.708 44.0127C122.587 43.1767 122.379 42.3447 122.047 41.5507C121.714 40.7597 121.258 40.0067 120.662 39.3687C120.071 38.7287 119.352 38.2057 118.569 37.8307C117.786 37.4557 116.947 37.2217 116.1 37.1017C115.256 36.9847 114.398 36.9547 113.527 37.0867C112.664 37.2207 111.82 37.5187 111.073 37.9727C110.325 38.4257 109.668 39.0127 109.117 39.6777C108.565 40.3347 108.116 41.1057 107.786 41.8817C107.442 42.6907 107.248 43.5137 107.091 44.3377C106.941 45.1657 106.831 45.9827 106.782 46.8317L106.741 47.5407L107.382 47.3237C107.411 47.6327 107.45 48.0517 107.497 48.5537C107.554 49.1077 107.645 49.7057 107.627 50.3517C107.618 50.6757 107.598 51.0077 107.539 51.3307C107.478 51.6587 107.386 52.0057 107.309 52.3677C107.234 52.7317 107.158 53.1087 107.186 53.5387C107.203 53.7527 107.253 53.9897 107.387 54.2117C107.52 54.4347 107.744 54.6027 107.956 54.6897C108.391 54.8617 108.769 54.8407 109.111 54.8167C109.419 54.7867 109.71 54.7587 109.978 54.7327C111.052 54.6297 111.768 54.5607 111.768 54.5607L111.763 54.5127C111.957 54.6607 112.163 54.7947 112.378 54.9167C112.351 54.9577 112.327 54.9947 112.296 55.0407C112.078 55.3597 111.763 55.7737 111.408 56.1507C111.056 56.5307 110.665 56.8707 110.353 57.0987C110.199 57.2147 110.065 57.3027 109.968 57.3597C109.917 57.3917 109.88 57.4147 109.854 57.4307C109.808 57.3717 109.759 57.3117 109.726 57.2577L109.617 56.8787L109.421 56.7097H109.415C109.255 56.7097 109.131 56.9677 108.996 57.0087C108.865 57.0487 108.736 57.1947 108.61 57.2467C108.358 57.3497 108.115 57.5257 107.885 57.6697C107.654 57.8127 107.43 57.9957 107.225 58.1737C107.119 58.2597 107.015 58.3607 106.921 58.4587C106.826 58.5547 106.722 58.6517 106.634 58.7547C106.455 58.9587 106.275 59.1677 106.122 59.3917C105.954 59.6067 105.822 59.8437 105.679 60.0747C105.539 60.3077 105.423 60.5667 105.296 60.8147L105 61.5167L106.231 61.9487L106.44 61.2227C106.522 61.0127 106.586 60.7977 106.682 60.5847C106.781 60.3737 106.87 60.1537 106.992 59.9547C107.1 59.7457 107.232 59.5547 107.364 59.3617C107.428 59.2637 107.507 59.1787 107.578 59.0857C107.648 58.9917 107.727 58.9067 107.808 58.8227C107.965 58.6497 108.139 58.4937 108.321 58.3477C108.503 58.2017 108.697 58.0697 108.9 57.9567C109.001 57.8997 109.105 57.8477 109.21 57.8017C109.258 57.7797 109.31 57.7597 109.359 57.7407C109.478 57.8987 109.6 58.0397 109.736 58.1737C109.924 58.3607 110.131 58.5207 110.345 58.6697C110.56 58.8167 110.783 58.9507 111.015 59.0637C111.244 59.1847 111.485 59.2777 111.725 59.3677C112.208 59.5427 112.707 59.6577 113.209 59.7377C113.711 59.8157 114.217 59.8467 114.721 59.8547C114.991 59.8577 115.219 59.8417 115.471 59.8367C115.719 59.8247 115.98 59.7887 116.234 59.7657C116.737 59.6857 117.24 59.5907 117.725 59.4127C117.97 59.3357 118.206 59.2247 118.44 59.1157C118.673 58.9987 118.897 58.8647 119.112 58.7157C119.323 58.5587 119.529 58.3937 119.712 58.1987C119.845 58.0587 119.962 57.9087 120.073 57.7407C120.118 57.7557 120.164 57.7717 120.208 57.7907C120.314 57.8297 120.416 57.8827 120.519 57.9297C120.719 58.0387 120.915 58.1537 121.093 58.2937C121.275 58.4287 121.442 58.5817 121.594 58.7457C121.75 58.9067 121.881 59.0897 122.011 59.2697C122.122 59.4647 122.248 59.6477 122.33 59.8577C122.43 60.0567 122.499 60.2717 122.567 60.4847C122.642 60.6947 122.671 60.9257 122.726 61.1417C122.76 61.3657 122.781 61.5937 122.811 61.8177L124.06 61.6477C123.996 61.3857 123.94 61.1237 123.869 60.8657V60.8657Z" fill="#F08B98"/>
</g>
</svg>
